<mxfile host="Electron" agent="Mozilla/5.0 (Windows NT 10.0; Win64; x64) AppleWebKit/537.36 (KHTML, like Gecko) draw.io/27.0.9 Chrome/134.0.6998.205 Electron/35.4.0 Safari/537.36" version="27.0.9" pages="2">
  <diagram id="zlUSH2nrvmtDCXBGqj97" name="[구인구직]USECASE">
    <mxGraphModel dx="1665" dy="837" grid="1" gridSize="10" guides="1" tooltips="1" connect="1" arrows="1" fold="1" page="1" pageScale="1" pageWidth="827" pageHeight="1169" math="0" shadow="0">
      <root>
        <mxCell id="0" />
        <mxCell id="1" parent="0" />
        <mxCell id="A0BF1SZ7ImHHtUsh2Q7r-1" value="구인구직프로그램" style="shape=umlFrame;whiteSpace=wrap;html=1;pointerEvents=0;width=110;height=30;" parent="1" vertex="1">
          <mxGeometry x="260" y="210" width="810" height="620" as="geometry" />
        </mxCell>
        <mxCell id="A0BF1SZ7ImHHtUsh2Q7r-2" value="개인회원" style="shape=umlActor;verticalLabelPosition=bottom;verticalAlign=top;html=1;" parent="1" vertex="1">
          <mxGeometry x="180" y="435" width="30" height="60" as="geometry" />
        </mxCell>
        <mxCell id="A0BF1SZ7ImHHtUsh2Q7r-4" value="기업회원" style="shape=umlActor;verticalLabelPosition=bottom;verticalAlign=top;html=1;" parent="1" vertex="1">
          <mxGeometry x="1110" y="670" width="30" height="60" as="geometry" />
        </mxCell>
        <mxCell id="7aI1CLauymCfcnvCDatC-1" value="비회원" style="shape=umlActor;verticalLabelPosition=bottom;verticalAlign=top;html=1;" parent="1" vertex="1">
          <mxGeometry x="180" y="690" width="30" height="60" as="geometry" />
        </mxCell>
        <mxCell id="0Q4rSLLTnGw8vW1kDGHE-2" value="관리자" style="shape=umlActor;verticalLabelPosition=bottom;verticalAlign=top;html=1;" parent="1" vertex="1">
          <mxGeometry x="1100" y="240" width="30" height="60" as="geometry" />
        </mxCell>
        <mxCell id="UhRmZjVGA-KTO3u60IXY-1" value="이력서 편집" style="ellipse;whiteSpace=wrap;html=1;" parent="1" vertex="1">
          <mxGeometry x="481.75" y="340" width="86" height="40" as="geometry" />
        </mxCell>
        <mxCell id="UhRmZjVGA-KTO3u60IXY-2" value="등록" style="ellipse;whiteSpace=wrap;html=1;" parent="1" vertex="1">
          <mxGeometry x="445.75" y="409.98" width="36" height="30" as="geometry" />
        </mxCell>
        <mxCell id="YYrEKivyd2clx7cm68Mq-2" style="edgeStyle=orthogonalEdgeStyle;rounded=0;orthogonalLoop=1;jettySize=auto;html=1;endArrow=block;endFill=0;" parent="1" source="UhRmZjVGA-KTO3u60IXY-4" edge="1">
          <mxGeometry relative="1" as="geometry">
            <mxPoint x="521.75" y="379.98" as="targetPoint" />
            <Array as="points">
              <mxPoint x="512.75" y="400" />
              <mxPoint x="521.75" y="400" />
            </Array>
          </mxGeometry>
        </mxCell>
        <mxCell id="UhRmZjVGA-KTO3u60IXY-4" value="수정" style="ellipse;whiteSpace=wrap;html=1;" parent="1" vertex="1">
          <mxGeometry x="489.75" y="409.98" width="36" height="30" as="geometry" />
        </mxCell>
        <mxCell id="YYrEKivyd2clx7cm68Mq-5" style="edgeStyle=orthogonalEdgeStyle;rounded=0;orthogonalLoop=1;jettySize=auto;html=1;endArrow=block;endFill=0;exitX=0.5;exitY=0;exitDx=0;exitDy=0;" parent="1" source="UhRmZjVGA-KTO3u60IXY-5" edge="1">
          <mxGeometry relative="1" as="geometry">
            <mxPoint x="521.75" y="379.98" as="targetPoint" />
            <Array as="points">
              <mxPoint x="581.75" y="439.98" />
              <mxPoint x="581.75" y="399.98" />
              <mxPoint x="521.75" y="399.98" />
            </Array>
          </mxGeometry>
        </mxCell>
        <mxCell id="UhRmZjVGA-KTO3u60IXY-5" value="삭제" style="ellipse;whiteSpace=wrap;html=1;" parent="1" vertex="1">
          <mxGeometry x="564.25" y="409.98" width="36" height="30" as="geometry" />
        </mxCell>
        <mxCell id="gTb12wQ1pHF9XSLr5qrv-1" value="회원가입" style="ellipse;whiteSpace=wrap;html=1;" parent="1" vertex="1">
          <mxGeometry x="342" y="750" width="86" height="40" as="geometry" />
        </mxCell>
        <mxCell id="gTb12wQ1pHF9XSLr5qrv-2" value="채용공고 편집" style="ellipse;whiteSpace=wrap;html=1;" parent="1" vertex="1">
          <mxGeometry x="749" y="720" width="86" height="40" as="geometry" />
        </mxCell>
        <mxCell id="EJplWMHD7kM2KOVN8ciZ-3" style="edgeStyle=orthogonalEdgeStyle;rounded=0;orthogonalLoop=1;jettySize=auto;html=1;endArrow=block;endFill=0;" parent="1" source="gTb12wQ1pHF9XSLr5qrv-3" target="gTb12wQ1pHF9XSLr5qrv-2" edge="1">
          <mxGeometry relative="1" as="geometry">
            <Array as="points">
              <mxPoint x="717" y="780" />
              <mxPoint x="792" y="780" />
            </Array>
          </mxGeometry>
        </mxCell>
        <mxCell id="gTb12wQ1pHF9XSLr5qrv-3" value="등록" style="ellipse;whiteSpace=wrap;html=1;" parent="1" vertex="1">
          <mxGeometry x="699" y="790" width="36" height="30" as="geometry" />
        </mxCell>
        <mxCell id="EJplWMHD7kM2KOVN8ciZ-2" style="edgeStyle=orthogonalEdgeStyle;rounded=0;orthogonalLoop=1;jettySize=auto;html=1;entryX=0.5;entryY=1;entryDx=0;entryDy=0;endArrow=block;endFill=0;" parent="1" source="gTb12wQ1pHF9XSLr5qrv-5" target="gTb12wQ1pHF9XSLr5qrv-2" edge="1">
          <mxGeometry relative="1" as="geometry" />
        </mxCell>
        <mxCell id="gTb12wQ1pHF9XSLr5qrv-5" value="수정" style="ellipse;whiteSpace=wrap;html=1;" parent="1" vertex="1">
          <mxGeometry x="774" y="790" width="36" height="30" as="geometry" />
        </mxCell>
        <mxCell id="EJplWMHD7kM2KOVN8ciZ-5" style="edgeStyle=orthogonalEdgeStyle;rounded=0;orthogonalLoop=1;jettySize=auto;html=1;endArrow=block;endFill=0;" parent="1" source="gTb12wQ1pHF9XSLr5qrv-6" target="gTb12wQ1pHF9XSLr5qrv-2" edge="1">
          <mxGeometry relative="1" as="geometry">
            <Array as="points">
              <mxPoint x="864" y="780" />
              <mxPoint x="792" y="780" />
            </Array>
          </mxGeometry>
        </mxCell>
        <mxCell id="gTb12wQ1pHF9XSLr5qrv-6" value="삭제" style="ellipse;whiteSpace=wrap;html=1;" parent="1" vertex="1">
          <mxGeometry x="846" y="790" width="36" height="30" as="geometry" />
        </mxCell>
        <mxCell id="gTb12wQ1pHF9XSLr5qrv-7" value="로그인" style="ellipse;whiteSpace=wrap;html=1;" parent="1" vertex="1">
          <mxGeometry x="650" y="410" width="86" height="40" as="geometry" />
        </mxCell>
        <mxCell id="GRQ7i6VYP4HYALs3E6v_-2" value="회원정보" style="ellipse;whiteSpace=wrap;html=1;" parent="1" vertex="1">
          <mxGeometry x="944" y="380" width="86" height="40" as="geometry" />
        </mxCell>
        <mxCell id="gBZZwF--U4QQWW48Fl4P-10" style="edgeStyle=orthogonalEdgeStyle;rounded=0;orthogonalLoop=1;jettySize=auto;html=1;entryX=0.5;entryY=1;entryDx=0;entryDy=0;endArrow=block;endFill=0;" parent="1" source="GRQ7i6VYP4HYALs3E6v_-3" target="GRQ7i6VYP4HYALs3E6v_-2" edge="1">
          <mxGeometry relative="1" as="geometry">
            <Array as="points">
              <mxPoint x="951" y="440" />
              <mxPoint x="987" y="440" />
            </Array>
          </mxGeometry>
        </mxCell>
        <mxCell id="GRQ7i6VYP4HYALs3E6v_-3" value="조회" style="ellipse;whiteSpace=wrap;html=1;" parent="1" vertex="1">
          <mxGeometry x="933" y="450" width="36" height="30" as="geometry" />
        </mxCell>
        <mxCell id="gBZZwF--U4QQWW48Fl4P-11" style="edgeStyle=orthogonalEdgeStyle;rounded=0;orthogonalLoop=1;jettySize=auto;html=1;endArrow=block;endFill=0;" parent="1" source="GRQ7i6VYP4HYALs3E6v_-4" target="GRQ7i6VYP4HYALs3E6v_-2" edge="1">
          <mxGeometry relative="1" as="geometry">
            <Array as="points">
              <mxPoint x="1031" y="440" />
              <mxPoint x="987" y="440" />
            </Array>
          </mxGeometry>
        </mxCell>
        <mxCell id="GRQ7i6VYP4HYALs3E6v_-4" value="수정" style="ellipse;whiteSpace=wrap;html=1;" parent="1" vertex="1">
          <mxGeometry x="1013" y="450" width="36" height="30" as="geometry" />
        </mxCell>
        <mxCell id="GRQ7i6VYP4HYALs3E6v_-5" value="커뮤니티&amp;nbsp;" style="ellipse;whiteSpace=wrap;html=1;" parent="1" vertex="1">
          <mxGeometry x="622" y="220" width="86" height="40" as="geometry" />
        </mxCell>
        <mxCell id="gBZZwF--U4QQWW48Fl4P-3" style="edgeStyle=orthogonalEdgeStyle;rounded=0;orthogonalLoop=1;jettySize=auto;html=1;exitX=0.5;exitY=0;exitDx=0;exitDy=0;endArrow=block;endFill=0;" parent="1" source="GRQ7i6VYP4HYALs3E6v_-6" edge="1">
          <mxGeometry relative="1" as="geometry">
            <Array as="points">
              <mxPoint x="587.5" y="280" />
              <mxPoint x="671.5" y="280" />
            </Array>
            <mxPoint x="671.5" y="260" as="targetPoint" />
          </mxGeometry>
        </mxCell>
        <mxCell id="GRQ7i6VYP4HYALs3E6v_-6" value="등록" style="ellipse;whiteSpace=wrap;html=1;" parent="1" vertex="1">
          <mxGeometry x="569" y="290" width="36" height="30" as="geometry" />
        </mxCell>
        <mxCell id="gBZZwF--U4QQWW48Fl4P-8" style="edgeStyle=orthogonalEdgeStyle;rounded=0;orthogonalLoop=1;jettySize=auto;html=1;endArrow=block;endFill=0;" parent="1" source="GRQ7i6VYP4HYALs3E6v_-7" edge="1">
          <mxGeometry relative="1" as="geometry">
            <Array as="points">
              <mxPoint x="756.5" y="280" />
              <mxPoint x="671.5" y="280" />
            </Array>
            <mxPoint x="671.5" y="260" as="targetPoint" />
          </mxGeometry>
        </mxCell>
        <mxCell id="GRQ7i6VYP4HYALs3E6v_-7" value="조회" style="ellipse;whiteSpace=wrap;html=1;" parent="1" vertex="1">
          <mxGeometry x="738" y="290" width="36" height="30" as="geometry" />
        </mxCell>
        <mxCell id="gBZZwF--U4QQWW48Fl4P-5" style="edgeStyle=orthogonalEdgeStyle;rounded=0;orthogonalLoop=1;jettySize=auto;html=1;entryX=0.5;entryY=1;entryDx=0;entryDy=0;endArrow=block;endFill=0;" parent="1" source="GRQ7i6VYP4HYALs3E6v_-8" edge="1">
          <mxGeometry relative="1" as="geometry">
            <Array as="points">
              <mxPoint x="640.5" y="280" />
              <mxPoint x="671.5" y="280" />
            </Array>
            <mxPoint x="671.5" y="260" as="targetPoint" />
          </mxGeometry>
        </mxCell>
        <mxCell id="GRQ7i6VYP4HYALs3E6v_-8" value="수정" style="ellipse;whiteSpace=wrap;html=1;" parent="1" vertex="1">
          <mxGeometry x="622" y="290" width="36" height="30" as="geometry" />
        </mxCell>
        <mxCell id="gBZZwF--U4QQWW48Fl4P-6" style="edgeStyle=orthogonalEdgeStyle;rounded=0;orthogonalLoop=1;jettySize=auto;html=1;entryX=0.5;entryY=1;entryDx=0;entryDy=0;endArrow=block;endFill=0;" parent="1" source="GRQ7i6VYP4HYALs3E6v_-9" edge="1">
          <mxGeometry relative="1" as="geometry">
            <Array as="points">
              <mxPoint x="700.5" y="280" />
              <mxPoint x="671.5" y="280" />
            </Array>
            <mxPoint x="671.5" y="260" as="targetPoint" />
          </mxGeometry>
        </mxCell>
        <mxCell id="GRQ7i6VYP4HYALs3E6v_-9" value="삭제" style="ellipse;whiteSpace=wrap;html=1;" parent="1" vertex="1">
          <mxGeometry x="682" y="290" width="36" height="30" as="geometry" />
        </mxCell>
        <mxCell id="GRQ7i6VYP4HYALs3E6v_-10" value="개인&lt;div&gt;회원&lt;/div&gt;" style="ellipse;whiteSpace=wrap;html=1;" parent="1" vertex="1">
          <mxGeometry x="898" y="527.5" width="35" height="32.5" as="geometry" />
        </mxCell>
        <mxCell id="GRQ7i6VYP4HYALs3E6v_-11" value="기업&lt;div&gt;회원&lt;/div&gt;" style="ellipse;whiteSpace=wrap;html=1;" parent="1" vertex="1">
          <mxGeometry x="1000" y="510" width="36" height="32" as="geometry" />
        </mxCell>
        <mxCell id="iZWqKBoFffZ96FdLiA8J-6" style="edgeStyle=orthogonalEdgeStyle;rounded=0;orthogonalLoop=1;jettySize=auto;html=1;endArrow=block;endFill=0;" parent="1" source="GRQ7i6VYP4HYALs3E6v_-14" edge="1">
          <mxGeometry relative="1" as="geometry">
            <mxPoint x="522.75" y="380" as="targetPoint" />
            <Array as="points">
              <mxPoint x="536.75" y="400" />
              <mxPoint x="522.75" y="400" />
            </Array>
          </mxGeometry>
        </mxCell>
        <mxCell id="GRQ7i6VYP4HYALs3E6v_-14" value="이력서 조회" style="ellipse;whiteSpace=wrap;html=1;" parent="1" vertex="1">
          <mxGeometry x="501.25" y="450" width="71.5" height="30" as="geometry" />
        </mxCell>
        <mxCell id="DNFed-dchEDenmaKePJS-12" style="edgeStyle=none;curved=1;rounded=0;orthogonalLoop=1;jettySize=auto;html=1;entryX=0;entryY=0.5;entryDx=0;entryDy=0;fontSize=12;startSize=8;endSize=8;endArrow=blockThin;endFill=0;" parent="1" source="GRQ7i6VYP4HYALs3E6v_-15" target="gTb12wQ1pHF9XSLr5qrv-2" edge="1">
          <mxGeometry relative="1" as="geometry" />
        </mxCell>
        <mxCell id="GRQ7i6VYP4HYALs3E6v_-15" value="채용공고 조회" style="ellipse;whiteSpace=wrap;html=1;" parent="1" vertex="1">
          <mxGeometry x="540" y="700" width="80" height="30" as="geometry" />
        </mxCell>
        <mxCell id="GRQ7i6VYP4HYALs3E6v_-17" value="use" style="html=1;verticalAlign=bottom;endArrow=block;curved=0;rounded=0;entryX=0;entryY=0.5;entryDx=0;entryDy=0;endSize=7;" parent="1" source="A0BF1SZ7ImHHtUsh2Q7r-2" target="UhRmZjVGA-KTO3u60IXY-1" edge="1">
          <mxGeometry width="80" relative="1" as="geometry">
            <mxPoint x="620" y="600" as="sourcePoint" />
            <mxPoint x="700" y="600" as="targetPoint" />
          </mxGeometry>
        </mxCell>
        <mxCell id="DNFed-dchEDenmaKePJS-5" value="use" style="html=1;verticalAlign=bottom;endArrow=block;curved=0;rounded=0;fontSize=12;startSize=8;endSize=8;entryX=0;entryY=0.5;entryDx=0;entryDy=0;" parent="1" source="7aI1CLauymCfcnvCDatC-1" target="gTb12wQ1pHF9XSLr5qrv-1" edge="1">
          <mxGeometry width="80" relative="1" as="geometry">
            <mxPoint x="420" y="510" as="sourcePoint" />
            <mxPoint x="500" y="510" as="targetPoint" />
          </mxGeometry>
        </mxCell>
        <mxCell id="DNFed-dchEDenmaKePJS-7" value="use" style="html=1;verticalAlign=bottom;endArrow=block;curved=0;rounded=0;fontSize=12;startSize=8;endSize=7;" parent="1" source="A0BF1SZ7ImHHtUsh2Q7r-2" target="GRQ7i6VYP4HYALs3E6v_-14" edge="1">
          <mxGeometry width="80" relative="1" as="geometry">
            <mxPoint x="170" y="420" as="sourcePoint" />
            <mxPoint x="510" y="470" as="targetPoint" />
          </mxGeometry>
        </mxCell>
        <mxCell id="DNFed-dchEDenmaKePJS-8" value="use" style="html=1;verticalAlign=bottom;endArrow=block;curved=0;rounded=0;fontSize=12;startSize=8;endSize=7;entryX=0;entryY=0.5;entryDx=0;entryDy=0;" parent="1" source="A0BF1SZ7ImHHtUsh2Q7r-2" target="GRQ7i6VYP4HYALs3E6v_-15" edge="1">
          <mxGeometry width="80" relative="1" as="geometry">
            <mxPoint x="550" y="625" as="sourcePoint" />
            <mxPoint x="770" y="620" as="targetPoint" />
          </mxGeometry>
        </mxCell>
        <mxCell id="DNFed-dchEDenmaKePJS-9" value="use" style="html=1;verticalAlign=bottom;endArrow=block;curved=0;rounded=0;fontSize=12;startSize=8;endSize=7;" parent="1" source="A0BF1SZ7ImHHtUsh2Q7r-4" target="GRQ7i6VYP4HYALs3E6v_-15" edge="1">
          <mxGeometry width="80" relative="1" as="geometry">
            <mxPoint x="930" y="805" as="sourcePoint" />
            <mxPoint x="1150" y="800" as="targetPoint" />
          </mxGeometry>
        </mxCell>
        <mxCell id="DNFed-dchEDenmaKePJS-10" value="use" style="html=1;verticalAlign=bottom;endArrow=block;curved=0;rounded=0;fontSize=12;startSize=8;endSize=7;" parent="1" source="A0BF1SZ7ImHHtUsh2Q7r-4" target="gTb12wQ1pHF9XSLr5qrv-2" edge="1">
          <mxGeometry width="80" relative="1" as="geometry">
            <mxPoint x="1090" y="635" as="sourcePoint" />
            <mxPoint x="1310" y="630" as="targetPoint" />
          </mxGeometry>
        </mxCell>
        <mxCell id="DNFed-dchEDenmaKePJS-13" value="&amp;lt;&amp;lt; include &amp;gt;&amp;gt;" style="endArrow=open;endSize=7;dashed=1;html=1;rounded=0;fontSize=12;curved=1;entryX=1;entryY=1;entryDx=0;entryDy=0;" parent="1" source="gTb12wQ1pHF9XSLr5qrv-2" target="gTb12wQ1pHF9XSLr5qrv-7" edge="1">
          <mxGeometry x="0.0024" width="160" relative="1" as="geometry">
            <mxPoint x="740" y="510" as="sourcePoint" />
            <mxPoint x="900" y="510" as="targetPoint" />
            <mxPoint as="offset" />
          </mxGeometry>
        </mxCell>
        <mxCell id="DNFed-dchEDenmaKePJS-14" value="&amp;lt;&amp;lt; include &amp;gt;&amp;gt;" style="endArrow=open;endSize=7;dashed=1;html=1;rounded=0;fontSize=12;curved=1;" parent="1" source="UhRmZjVGA-KTO3u60IXY-1" target="gTb12wQ1pHF9XSLr5qrv-7" edge="1">
          <mxGeometry x="0.3786" y="3" width="160" relative="1" as="geometry">
            <mxPoint x="886" y="818" as="sourcePoint" />
            <mxPoint x="620" y="520" as="targetPoint" />
            <mxPoint as="offset" />
          </mxGeometry>
        </mxCell>
        <mxCell id="DNFed-dchEDenmaKePJS-15" value="&amp;lt;&amp;lt; include &amp;gt;&amp;gt;" style="endArrow=open;endSize=7;dashed=1;html=1;rounded=0;fontSize=12;curved=1;" parent="1" source="GRQ7i6VYP4HYALs3E6v_-5" target="gTb12wQ1pHF9XSLr5qrv-7" edge="1">
          <mxGeometry x="0.0834" y="6" width="160" relative="1" as="geometry">
            <mxPoint x="630" y="470" as="sourcePoint" />
            <mxPoint x="908" y="592" as="targetPoint" />
            <mxPoint as="offset" />
          </mxGeometry>
        </mxCell>
        <mxCell id="gBZZwF--U4QQWW48Fl4P-9" value="use" style="html=1;verticalAlign=bottom;endArrow=block;curved=0;rounded=0;fontSize=12;startSize=8;endSize=7;" parent="1" source="0Q4rSLLTnGw8vW1kDGHE-2" target="GRQ7i6VYP4HYALs3E6v_-2" edge="1">
          <mxGeometry width="80" relative="1" as="geometry">
            <mxPoint x="1377" y="530" as="sourcePoint" />
            <mxPoint x="1120" y="330" as="targetPoint" />
            <Array as="points" />
          </mxGeometry>
        </mxCell>
        <mxCell id="63_WXTDJ1akz1xWzIMQB-1" value="&amp;lt;&amp;lt; extend &amp;gt;&amp;gt;" style="endArrow=open;endSize=7;dashed=1;html=1;rounded=0;" parent="1" source="GRQ7i6VYP4HYALs3E6v_-10" target="GRQ7i6VYP4HYALs3E6v_-3" edge="1">
          <mxGeometry width="160" relative="1" as="geometry">
            <mxPoint x="783" y="520" as="sourcePoint" />
            <mxPoint x="943" y="520" as="targetPoint" />
          </mxGeometry>
        </mxCell>
        <mxCell id="EJplWMHD7kM2KOVN8ciZ-1" value="&amp;lt;&amp;lt; extend &amp;gt;&amp;gt;" style="endArrow=open;endSize=7;dashed=1;html=1;rounded=0;" parent="1" source="GRQ7i6VYP4HYALs3E6v_-11" target="GRQ7i6VYP4HYALs3E6v_-3" edge="1">
          <mxGeometry width="160" relative="1" as="geometry">
            <mxPoint x="963" y="624" as="sourcePoint" />
            <mxPoint x="995" y="580" as="targetPoint" />
          </mxGeometry>
        </mxCell>
        <mxCell id="ykoSI45cO_7fBJEoNTSd-1" value="use" style="html=1;verticalAlign=bottom;endArrow=block;curved=0;rounded=0;fontSize=12;startSize=8;endSize=7;" parent="1" source="0Q4rSLLTnGw8vW1kDGHE-2" target="GRQ7i6VYP4HYALs3E6v_-5" edge="1">
          <mxGeometry width="80" relative="1" as="geometry">
            <mxPoint x="1273" y="331" as="sourcePoint" />
            <mxPoint x="1070" y="250" as="targetPoint" />
            <Array as="points" />
          </mxGeometry>
        </mxCell>
        <mxCell id="GCvj8nwvvSJQ9L8vPj7F-1" value="use" style="html=1;verticalAlign=bottom;endArrow=block;curved=0;rounded=0;fontSize=12;startSize=8;endSize=7;" parent="1" source="7aI1CLauymCfcnvCDatC-1" target="GRQ7i6VYP4HYALs3E6v_-15" edge="1">
          <mxGeometry width="80" relative="1" as="geometry">
            <mxPoint x="380" y="815" as="sourcePoint" />
            <mxPoint x="590" y="750" as="targetPoint" />
          </mxGeometry>
        </mxCell>
        <mxCell id="aQtsJZtRWasZJ5pAKoAF-1" value="use" style="html=1;verticalAlign=bottom;endArrow=block;curved=0;rounded=0;fontSize=12;startSize=8;endSize=7;" parent="1" source="A0BF1SZ7ImHHtUsh2Q7r-2" target="GRQ7i6VYP4HYALs3E6v_-10" edge="1">
          <mxGeometry width="80" relative="1" as="geometry">
            <mxPoint x="420" y="440" as="sourcePoint" />
            <mxPoint x="920.0000562302075" y="467.5437422691855" as="targetPoint" />
          </mxGeometry>
        </mxCell>
        <mxCell id="-YBlMIoLYkkjmGGHqoQj-1" value="나의 정보" style="ellipse;whiteSpace=wrap;html=1;" parent="1" vertex="1">
          <mxGeometry x="557.5" y="550" width="82.5" height="35" as="geometry" />
        </mxCell>
        <mxCell id="i8Egpd2tCJKolrc4JgsC-1" value="&amp;lt;&amp;lt; include &amp;gt;&amp;gt;" style="endArrow=open;endSize=7;dashed=1;html=1;rounded=0;fontSize=12;curved=1;" parent="1" source="-YBlMIoLYkkjmGGHqoQj-1" target="gTb12wQ1pHF9XSLr5qrv-7" edge="1">
          <mxGeometry x="0.4946" y="-9" width="160" relative="1" as="geometry">
            <mxPoint x="540" y="530" as="sourcePoint" />
            <mxPoint x="765" y="640" as="targetPoint" />
            <mxPoint as="offset" />
          </mxGeometry>
        </mxCell>
        <mxCell id="i8Egpd2tCJKolrc4JgsC-2" value="use" style="html=1;verticalAlign=bottom;endArrow=block;curved=0;rounded=0;fontSize=12;startSize=8;endSize=7;" parent="1" source="A0BF1SZ7ImHHtUsh2Q7r-2" target="-YBlMIoLYkkjmGGHqoQj-1" edge="1">
          <mxGeometry width="80" relative="1" as="geometry">
            <mxPoint x="390" y="583" as="sourcePoint" />
            <mxPoint x="654" y="510" as="targetPoint" />
          </mxGeometry>
        </mxCell>
        <mxCell id="i8Egpd2tCJKolrc4JgsC-3" value="use" style="html=1;verticalAlign=bottom;endArrow=block;curved=0;rounded=0;fontSize=12;startSize=8;endSize=7;" parent="1" source="A0BF1SZ7ImHHtUsh2Q7r-4" target="-YBlMIoLYkkjmGGHqoQj-1" edge="1">
          <mxGeometry width="80" relative="1" as="geometry">
            <mxPoint x="720" y="693" as="sourcePoint" />
            <mxPoint x="984" y="620" as="targetPoint" />
          </mxGeometry>
        </mxCell>
        <mxCell id="bFgvft2u9b1LjlRzrRqw-1" value="use" style="html=1;verticalAlign=bottom;endArrow=block;curved=0;rounded=0;endSize=7;" parent="1" source="A0BF1SZ7ImHHtUsh2Q7r-2" target="GRQ7i6VYP4HYALs3E6v_-5" edge="1">
          <mxGeometry width="80" relative="1" as="geometry">
            <mxPoint x="410" y="404" as="sourcePoint" />
            <mxPoint x="673" y="300" as="targetPoint" />
          </mxGeometry>
        </mxCell>
        <mxCell id="rD--KJGOY2dHqFJBhVYR-1" value="use" style="html=1;verticalAlign=bottom;endArrow=block;curved=0;rounded=0;fontSize=12;startSize=8;endSize=7;" parent="1" source="A0BF1SZ7ImHHtUsh2Q7r-4" target="GRQ7i6VYP4HYALs3E6v_-14" edge="1">
          <mxGeometry width="80" relative="1" as="geometry">
            <mxPoint x="1511" y="719" as="sourcePoint" />
            <mxPoint x="950" y="580" as="targetPoint" />
          </mxGeometry>
        </mxCell>
        <mxCell id="iZWqKBoFffZ96FdLiA8J-1" style="edgeStyle=orthogonalEdgeStyle;rounded=0;orthogonalLoop=1;jettySize=auto;html=1;endArrow=block;endFill=0;" parent="1" source="V1gUesYW_PvFDicrdVNt-1" target="-YBlMIoLYkkjmGGHqoQj-1" edge="1">
          <mxGeometry relative="1" as="geometry">
            <Array as="points">
              <mxPoint x="560" y="605" />
              <mxPoint x="599" y="605" />
            </Array>
          </mxGeometry>
        </mxCell>
        <mxCell id="V1gUesYW_PvFDicrdVNt-1" value="등록" style="ellipse;whiteSpace=wrap;html=1;" parent="1" vertex="1">
          <mxGeometry x="540" y="615" width="36" height="30" as="geometry" />
        </mxCell>
        <mxCell id="iZWqKBoFffZ96FdLiA8J-2" style="edgeStyle=orthogonalEdgeStyle;rounded=0;orthogonalLoop=1;jettySize=auto;html=1;endArrow=block;endFill=0;" parent="1" source="V1gUesYW_PvFDicrdVNt-2" edge="1">
          <mxGeometry relative="1" as="geometry">
            <mxPoint x="598.7500000000002" y="585" as="targetPoint" />
          </mxGeometry>
        </mxCell>
        <mxCell id="V1gUesYW_PvFDicrdVNt-2" value="수정" style="ellipse;whiteSpace=wrap;html=1;" parent="1" vertex="1">
          <mxGeometry x="580.75" y="615" width="36" height="30" as="geometry" />
        </mxCell>
        <mxCell id="iZWqKBoFffZ96FdLiA8J-3" style="edgeStyle=orthogonalEdgeStyle;rounded=0;orthogonalLoop=1;jettySize=auto;html=1;endArrow=block;endFill=0;entryX=0.5;entryY=1;entryDx=0;entryDy=0;" parent="1" source="V1gUesYW_PvFDicrdVNt-3" target="-YBlMIoLYkkjmGGHqoQj-1" edge="1">
          <mxGeometry relative="1" as="geometry">
            <Array as="points">
              <mxPoint x="638" y="605" />
              <mxPoint x="599" y="605" />
            </Array>
          </mxGeometry>
        </mxCell>
        <mxCell id="V1gUesYW_PvFDicrdVNt-3" value="삭제" style="ellipse;whiteSpace=wrap;html=1;" parent="1" vertex="1">
          <mxGeometry x="620" y="615" width="36" height="30" as="geometry" />
        </mxCell>
        <mxCell id="YYrEKivyd2clx7cm68Mq-1" value="" style="edgeStyle=orthogonalEdgeStyle;rounded=0;orthogonalLoop=1;jettySize=auto;html=1;endArrow=block;endFill=0;" parent="1" source="UhRmZjVGA-KTO3u60IXY-2" target="UhRmZjVGA-KTO3u60IXY-1" edge="1">
          <mxGeometry relative="1" as="geometry">
            <Array as="points">
              <mxPoint x="468.75" y="399.98" />
              <mxPoint x="521.75" y="399.98" />
            </Array>
          </mxGeometry>
        </mxCell>
      </root>
    </mxGraphModel>
  </diagram>
  <diagram id="gCV1QSYuiIwNlTUHNkEk" name="페이지-2">
    <mxGraphModel dx="1426" dy="849" grid="1" gridSize="10" guides="1" tooltips="1" connect="1" arrows="1" fold="1" page="1" pageScale="1" pageWidth="827" pageHeight="1169" math="0" shadow="0">
      <root>
        <mxCell id="0" />
        <mxCell id="1" parent="0" />
        <mxCell id="5U8gZH0piKThHxeOrQiA-1" value="&lt;div&gt;&amp;lt;&amp;lt;유스케이스 명세서&amp;gt;&amp;gt;&lt;/div&gt;유스케이스명 : 이력서등록" style="shape=table;startSize=40;container=1;collapsible=1;childLayout=tableLayout;fixedRows=1;rowLines=0;fontStyle=1;align=center;resizeLast=1;html=1;" vertex="1" parent="1">
          <mxGeometry x="360" y="210" width="629" height="800" as="geometry" />
        </mxCell>
        <mxCell id="5U8gZH0piKThHxeOrQiA-2" value="" style="shape=tableRow;horizontal=0;startSize=0;swimlaneHead=0;swimlaneBody=0;fillColor=none;collapsible=0;dropTarget=0;points=[[0,0.5],[1,0.5]];portConstraint=eastwest;top=0;left=0;right=0;bottom=1;strokeColor=default;verticalAlign=middle;fontStyle=0" vertex="1" parent="5U8gZH0piKThHxeOrQiA-1">
          <mxGeometry y="40" width="629" height="30" as="geometry" />
        </mxCell>
        <mxCell id="5U8gZH0piKThHxeOrQiA-3" value="목표" style="shape=partialRectangle;connectable=0;fillColor=none;top=0;left=0;bottom=0;right=0;fontStyle=1;overflow=hidden;whiteSpace=wrap;html=1;" vertex="1" parent="5U8gZH0piKThHxeOrQiA-2">
          <mxGeometry width="60" height="30" as="geometry">
            <mxRectangle width="60" height="30" as="alternateBounds" />
          </mxGeometry>
        </mxCell>
        <mxCell id="5U8gZH0piKThHxeOrQiA-4" value="&lt;span style=&quot;font-weight: 400; text-wrap: nowrap;&quot;&gt;구직자가 이력서 작성을 할 수 있도록 시스템을 통해 이력서 작성절차를 돕는다&lt;/span&gt;" style="shape=partialRectangle;connectable=0;fillColor=none;top=0;left=0;bottom=0;right=0;align=left;spacingLeft=6;fontStyle=1;overflow=hidden;whiteSpace=wrap;html=1;" vertex="1" parent="5U8gZH0piKThHxeOrQiA-2">
          <mxGeometry x="60" width="569" height="30" as="geometry">
            <mxRectangle width="569" height="30" as="alternateBounds" />
          </mxGeometry>
        </mxCell>
        <mxCell id="5U8gZH0piKThHxeOrQiA-5" value="" style="shape=tableRow;horizontal=0;startSize=0;swimlaneHead=0;swimlaneBody=0;fillColor=none;collapsible=0;dropTarget=0;points=[[0,0.5],[1,0.5]];portConstraint=eastwest;top=0;left=0;right=0;bottom=1;" vertex="1" parent="5U8gZH0piKThHxeOrQiA-1">
          <mxGeometry y="70" width="629" height="30" as="geometry" />
        </mxCell>
        <mxCell id="5U8gZH0piKThHxeOrQiA-6" value="엑터" style="shape=partialRectangle;connectable=0;fillColor=none;top=0;left=0;bottom=0;right=0;fontStyle=1;overflow=hidden;whiteSpace=wrap;html=1;" vertex="1" parent="5U8gZH0piKThHxeOrQiA-5">
          <mxGeometry width="60" height="30" as="geometry">
            <mxRectangle width="60" height="30" as="alternateBounds" />
          </mxGeometry>
        </mxCell>
        <mxCell id="5U8gZH0piKThHxeOrQiA-7" value="회원(개인)" style="shape=partialRectangle;connectable=0;fillColor=none;top=0;left=0;bottom=0;right=0;align=left;spacingLeft=6;fontStyle=0;overflow=hidden;whiteSpace=wrap;html=1;" vertex="1" parent="5U8gZH0piKThHxeOrQiA-5">
          <mxGeometry x="60" width="569" height="30" as="geometry">
            <mxRectangle width="569" height="30" as="alternateBounds" />
          </mxGeometry>
        </mxCell>
        <mxCell id="5U8gZH0piKThHxeOrQiA-8" value="" style="shape=tableRow;horizontal=0;startSize=0;swimlaneHead=0;swimlaneBody=0;fillColor=none;collapsible=0;dropTarget=0;points=[[0,0.5],[1,0.5]];portConstraint=eastwest;top=0;left=0;right=0;bottom=1;" vertex="1" parent="5U8gZH0piKThHxeOrQiA-1">
          <mxGeometry y="100" width="629" height="30" as="geometry" />
        </mxCell>
        <mxCell id="5U8gZH0piKThHxeOrQiA-9" value="사전 조건" style="shape=partialRectangle;connectable=0;fillColor=none;top=0;left=0;bottom=0;right=0;fontStyle=1;overflow=hidden;whiteSpace=wrap;html=1;" vertex="1" parent="5U8gZH0piKThHxeOrQiA-8">
          <mxGeometry width="60" height="30" as="geometry">
            <mxRectangle width="60" height="30" as="alternateBounds" />
          </mxGeometry>
        </mxCell>
        <mxCell id="5U8gZH0piKThHxeOrQiA-10" value="회원이 로그인 후&amp;nbsp;&lt;span style=&quot;background-color: transparent; color: light-dark(rgb(0, 0, 0), rgb(255, 255, 255));&quot;&gt;이력서 관리페이지에서 이력서 작성 버튼을 클릭하여&amp;nbsp;&lt;/span&gt;&lt;div&gt;&lt;span style=&quot;background-color: transparent; color: light-dark(rgb(0, 0, 0), rgb(255, 255, 255));&quot;&gt;이력서 작성 페이지로 이동한다&lt;/span&gt;&lt;/div&gt;" style="shape=partialRectangle;connectable=0;fillColor=none;top=0;left=0;bottom=0;right=0;align=left;spacingLeft=6;fontStyle=0;overflow=hidden;whiteSpace=wrap;html=1;" vertex="1" parent="5U8gZH0piKThHxeOrQiA-8">
          <mxGeometry x="60" width="569" height="30" as="geometry">
            <mxRectangle width="569" height="30" as="alternateBounds" />
          </mxGeometry>
        </mxCell>
        <mxCell id="5U8gZH0piKThHxeOrQiA-11" value="" style="shape=tableRow;horizontal=0;startSize=0;swimlaneHead=0;swimlaneBody=0;fillColor=none;collapsible=0;dropTarget=0;points=[[0,0.5],[1,0.5]];portConstraint=eastwest;top=0;left=0;right=0;bottom=1;" vertex="1" parent="5U8gZH0piKThHxeOrQiA-1">
          <mxGeometry y="130" width="629" height="60" as="geometry" />
        </mxCell>
        <mxCell id="5U8gZH0piKThHxeOrQiA-12" value="사후 처리" style="shape=partialRectangle;connectable=0;fillColor=none;top=0;left=0;bottom=0;right=0;fontStyle=1;overflow=hidden;whiteSpace=wrap;html=1;" vertex="1" parent="5U8gZH0piKThHxeOrQiA-11">
          <mxGeometry width="60" height="60" as="geometry">
            <mxRectangle width="60" height="60" as="alternateBounds" />
          </mxGeometry>
        </mxCell>
        <mxCell id="5U8gZH0piKThHxeOrQiA-13" value="&lt;span style=&quot;background-color: light-dark(#ffffff, var(--ge-dark-color, #121212));&quot;&gt;&lt;br&gt;&lt;/span&gt;&lt;span&gt;&lt;span style=&quot;color: rgb(0, 0, 0); font-family: Helvetica; font-size: 12px; font-style: normal; font-variant-ligatures: normal; font-variant-caps: normal; font-weight: 400; letter-spacing: normal; orphans: 2; text-align: left; text-indent: 0px; text-transform: none; widows: 2; word-spacing: 0px; -webkit-text-stroke-width: 0px; white-space: nowrap; text-decoration-thickness: initial; text-decoration-style: initial; text-decoration-color: initial; float: none; background-color: light-dark(#ffffff, var(--ge-dark-color, #121212)); display: inline !important;&quot;&gt;시스템은 회원이 보는 화면에 &quot;이력서확인&quot; 버튼과 &quot;맞춤알바 보기&quot; 버튼을 보여준다&lt;/span&gt;&lt;br&gt;&lt;/span&gt;" style="shape=partialRectangle;connectable=0;fillColor=none;top=0;left=0;bottom=0;right=0;align=left;spacingLeft=6;fontStyle=0;overflow=hidden;whiteSpace=wrap;html=1;" vertex="1" parent="5U8gZH0piKThHxeOrQiA-11">
          <mxGeometry x="60" width="569" height="60" as="geometry">
            <mxRectangle width="569" height="60" as="alternateBounds" />
          </mxGeometry>
        </mxCell>
        <mxCell id="5U8gZH0piKThHxeOrQiA-14" value="" style="shape=tableRow;horizontal=0;startSize=0;swimlaneHead=0;swimlaneBody=0;fillColor=none;collapsible=0;dropTarget=0;points=[[0,0.5],[1,0.5]];portConstraint=eastwest;top=0;left=0;right=0;bottom=1;" vertex="1" parent="5U8gZH0piKThHxeOrQiA-1">
          <mxGeometry y="190" width="629" height="170" as="geometry" />
        </mxCell>
        <mxCell id="5U8gZH0piKThHxeOrQiA-15" value="기본흐름" style="shape=partialRectangle;connectable=0;fillColor=none;top=0;left=0;bottom=0;right=0;fontStyle=1;overflow=hidden;whiteSpace=wrap;html=1;" vertex="1" parent="5U8gZH0piKThHxeOrQiA-14">
          <mxGeometry width="60" height="170" as="geometry">
            <mxRectangle width="60" height="170" as="alternateBounds" />
          </mxGeometry>
        </mxCell>
        <mxCell id="5U8gZH0piKThHxeOrQiA-16" value="&lt;div style=&quot;text-wrap: nowrap;&quot;&gt;&lt;div&gt;&lt;br&gt;&lt;/div&gt;&lt;div&gt;1. 회원이 이력서에 학력사항, 경력사항, 희망근무조건, 자기소개를 기입한다&amp;nbsp;&lt;/div&gt;&lt;div&gt;&lt;br&gt;&lt;/div&gt;&lt;div&gt;2. 회원이 동의사항(필수 동의사항, 선택 동의사항)에 체크한다&lt;/div&gt;&lt;div&gt;&lt;br&gt;&lt;/div&gt;&lt;div&gt;3. 회원이 이력서 저장 버튼을 누른다&lt;/div&gt;&lt;div&gt;&lt;br&gt;&lt;/div&gt;&lt;div&gt;4. 시스템은 회원의 이력서를 데이터에 저장한다.&lt;/div&gt;&lt;div&gt;&lt;br&gt;&lt;/div&gt;&lt;div&gt;&amp;nbsp;&lt;/div&gt;&lt;/div&gt;" style="shape=partialRectangle;connectable=0;fillColor=none;top=0;left=0;bottom=0;right=0;align=left;spacingLeft=6;fontStyle=0;overflow=hidden;whiteSpace=wrap;html=1;" vertex="1" parent="5U8gZH0piKThHxeOrQiA-14">
          <mxGeometry x="60" width="569" height="170" as="geometry">
            <mxRectangle width="569" height="170" as="alternateBounds" />
          </mxGeometry>
        </mxCell>
        <mxCell id="5U8gZH0piKThHxeOrQiA-17" value="" style="shape=tableRow;horizontal=0;startSize=0;swimlaneHead=0;swimlaneBody=0;fillColor=none;collapsible=0;dropTarget=0;points=[[0,0.5],[1,0.5]];portConstraint=eastwest;top=0;left=0;right=0;bottom=1;" vertex="1" parent="5U8gZH0piKThHxeOrQiA-1">
          <mxGeometry y="360" width="629" height="130" as="geometry" />
        </mxCell>
        <mxCell id="5U8gZH0piKThHxeOrQiA-18" value="대안흐름" style="shape=partialRectangle;connectable=0;fillColor=none;top=0;left=0;bottom=0;right=0;fontStyle=1;overflow=hidden;whiteSpace=wrap;html=1;" vertex="1" parent="5U8gZH0piKThHxeOrQiA-17">
          <mxGeometry width="60" height="130" as="geometry">
            <mxRectangle width="60" height="130" as="alternateBounds" />
          </mxGeometry>
        </mxCell>
        <mxCell id="5U8gZH0piKThHxeOrQiA-19" value="&lt;div&gt;뒤로가기 버튼을 누를 시 &quot;임시저장 하시겠습니까?&quot;라는 메시지를 전달&lt;/div&gt;&lt;div&gt;&lt;br&gt;&lt;/div&gt;&lt;div&gt;&lt;span style=&quot;text-wrap-mode: nowrap;&quot;&gt;회원이 이력서의 임시저장 버튼을 누른다 -&amp;gt;&amp;nbsp;&lt;/span&gt;&lt;span style=&quot;background-color: transparent; color: light-dark(rgb(0, 0, 0), rgb(255, 255, 255));&quot;&gt;임시저장 버튼을 누를 시 임시저장 후&lt;/span&gt;&lt;/div&gt;&lt;div&gt;&lt;span style=&quot;background-color: transparent; color: light-dark(rgb(0, 0, 0), rgb(255, 255, 255));&quot;&gt;&amp;nbsp;&quot;&lt;/span&gt;&lt;span style=&quot;background-color: transparent; color: light-dark(rgb(0, 0, 0), rgb(255, 255, 255));&quot;&gt;임시저장 되었습니다&quot;라는 메시지를 전달&lt;/span&gt;&lt;/div&gt;&lt;div&gt;&lt;br&gt;&lt;/div&gt;" style="shape=partialRectangle;connectable=0;fillColor=none;top=0;left=0;bottom=0;right=0;align=left;spacingLeft=6;fontStyle=0;overflow=hidden;whiteSpace=wrap;html=1;" vertex="1" parent="5U8gZH0piKThHxeOrQiA-17">
          <mxGeometry x="60" width="569" height="130" as="geometry">
            <mxRectangle width="569" height="130" as="alternateBounds" />
          </mxGeometry>
        </mxCell>
        <mxCell id="5U8gZH0piKThHxeOrQiA-20" value="" style="shape=tableRow;horizontal=0;startSize=0;swimlaneHead=0;swimlaneBody=0;fillColor=none;collapsible=0;dropTarget=0;points=[[0,0.5],[1,0.5]];portConstraint=eastwest;top=0;left=0;right=0;bottom=1;" vertex="1" parent="5U8gZH0piKThHxeOrQiA-1">
          <mxGeometry y="490" width="629" height="230" as="geometry" />
        </mxCell>
        <mxCell id="5U8gZH0piKThHxeOrQiA-21" value="예외흐름" style="shape=partialRectangle;connectable=0;fillColor=none;top=0;left=0;bottom=0;right=0;fontStyle=1;overflow=hidden;whiteSpace=wrap;html=1;" vertex="1" parent="5U8gZH0piKThHxeOrQiA-20">
          <mxGeometry width="60" height="230" as="geometry">
            <mxRectangle width="60" height="230" as="alternateBounds" />
          </mxGeometry>
        </mxCell>
        <mxCell id="5U8gZH0piKThHxeOrQiA-22" value="&lt;div style=&quot;text-wrap: nowrap;&quot;&gt;1a 개인정보 필수 항목 입력이 되지 않은 회원에게 회원정보 필수 항목 입력이&amp;nbsp;&lt;/div&gt;&lt;div style=&quot;text-wrap: nowrap;&quot;&gt;&amp;nbsp; &amp;nbsp; &amp;nbsp; 필요하다는 메시지를 회원에게 전달&lt;/div&gt;&lt;div style=&quot;text-wrap: nowrap;&quot;&gt;1b&amp;nbsp; 희망급여에 최저시급보다 작은 금액을 입력시, &quot;최저임금 이상으로 입력해 주세요&quot; 라는 메시지를 회원에게&amp;nbsp;&lt;/div&gt;&lt;div style=&quot;text-wrap: nowrap;&quot;&gt;&amp;nbsp; &amp;nbsp; &amp;nbsp; 전달&lt;/div&gt;&lt;div style=&quot;text-wrap: nowrap;&quot;&gt;1c&amp;nbsp; 자기소개란에 20자 이하로 작성시 20자이상 작성하라는 메시지를 회원에게 전달&lt;/div&gt;&lt;div style=&quot;text-wrap: nowrap;&quot;&gt;&lt;br&gt;&lt;/div&gt;&lt;div style=&quot;text-wrap: nowrap;&quot;&gt;&lt;br&gt;&lt;/div&gt;&lt;div style=&quot;text-wrap: nowrap;&quot;&gt;2a&amp;nbsp; 필수 동의사항에 체크하지 않았을 시, 필수 동의사항 체크하라는 메시지를 회원에게 전달&lt;/div&gt;&lt;div style=&quot;text-wrap: nowrap;&quot;&gt;&lt;br&gt;&lt;/div&gt;&lt;div style=&quot;text-wrap: nowrap;&quot;&gt;&lt;br&gt;&lt;/div&gt;" style="shape=partialRectangle;connectable=0;fillColor=none;top=0;left=0;bottom=0;right=0;align=left;spacingLeft=6;fontStyle=0;overflow=hidden;whiteSpace=wrap;html=1;" vertex="1" parent="5U8gZH0piKThHxeOrQiA-20">
          <mxGeometry x="60" width="569" height="230" as="geometry">
            <mxRectangle width="569" height="230" as="alternateBounds" />
          </mxGeometry>
        </mxCell>
      </root>
    </mxGraphModel>
  </diagram>
</mxfile>
